HIERARCHY
ROOT RootJoint
{
    OFFSET   0.000000   0.000000   0.000000
    CHANNELS 6 Xposition Yposition Zposition Xrotation Yrotation Zrotation
    JOINT pelvis_lowerback
    {
        OFFSET   0.000000   0.093605   0.000000
        CHANNELS 3 Xrotation Yrotation Zrotation
        JOINT lowerback_torso
        {
            OFFSET   0.000000   0.100000   0.000000
            CHANNELS 3 Xrotation Yrotation Zrotation
            JOINT torso_head
            {
                OFFSET   0.000000   0.282350   0.000000
                CHANNELS 3 Xrotation Yrotation Zrotation
                End Site
                {
                    OFFSET   0.000000   0.192650   0.000000
                }
            }
            JOINT rTorso_Clavicle
            {
                OFFSET  -0.001000   0.157500   0.000000
                CHANNELS 3 Xrotation Yrotation Zrotation
                JOINT rShoulder
                {
                    OFFSET  -0.117647   0.000000   0.000000
                    CHANNELS 3 Xrotation Yrotation Zrotation
                    JOINT rElbow
                    {
                        OFFSET  -0.245000   0.000000   0.000000
                        CHANNELS 3 Xrotation Yrotation Zrotation
                        JOINT rWrist
                        {
                            OFFSET  -0.240000   0.000000   0.000000
                            CHANNELS 3 Xrotation Yrotation Zrotation
                            End Site
                            {
                                OFFSET  -0.116353  -0.002500   0.000000
                            }
                        }
                    }
                }
            }
            JOINT lTorso_Clavicle
            {
                OFFSET   0.001000   0.157500   0.000000
                CHANNELS 3 Xrotation Yrotation Zrotation
                JOINT lShoulder
                {
                    OFFSET   0.117647   0.000000   0.000000
                    CHANNELS 3 Xrotation Yrotation Zrotation
                    JOINT lElbow
                    {
                        OFFSET   0.245000   0.000000   0.000000
                        CHANNELS 3 Xrotation Yrotation Zrotation
                        JOINT lWrist
                        {
                            OFFSET   0.240000   0.000000   0.000000
                            CHANNELS 3 Xrotation Yrotation Zrotation
                            End Site
                            {
                                OFFSET   0.116353  -0.002500   0.000000
                            }
                        }
                    }
                }
            }
        }
    }
    JOINT rHip
    {
        OFFSET  -0.100000  -0.051395   0.000000
        CHANNELS 3 Xrotation Yrotation Zrotation
        JOINT rKnee
        {
            OFFSET   0.000000  -0.410000   0.000000
            CHANNELS 3 Xrotation Yrotation Zrotation
            JOINT rAnkle
            {
                OFFSET   0.000000  -0.390000   0.000000
                CHANNELS 3 Xrotation Yrotation Zrotation
                JOINT rToeJoint
                {
                    OFFSET   0.000000  -0.050000   0.130000
                    CHANNELS 3 Xrotation Yrotation Zrotation
                    End Site
                    {
                        OFFSET  -0.010000   0.002000   0.060000
                    }
                }
            }
        }
    }
    JOINT lHip
    {
        OFFSET   0.100000  -0.051395   0.000000
        CHANNELS 3 Xrotation Yrotation Zrotation
        JOINT lKnee
        {
            OFFSET   0.000000  -0.410000   0.000000
            CHANNELS 3 Xrotation Yrotation Zrotation
            JOINT lAnkle
            {
                OFFSET   0.000000  -0.390000   0.000000
                CHANNELS 3 Xrotation Yrotation Zrotation
                JOINT lToeJoint
                {
                    OFFSET   0.000000  -0.050000   0.130000
                    CHANNELS 3 Xrotation Yrotation Zrotation
                    End Site
                    {
                        OFFSET   0.010000   0.002000   0.060000
                    }
                }
            }
        }
    }
}
MOTION
Frames: 10
Frame Time:   0.008333
 -1.579356   0.864613   3.837644  -3.075526 -15.303505   4.863246   4.849459   4.536424  -2.095603  -3.123262   2.173602   0.535239  -1.327568   3.858452   1.125553  -2.271977  11.813931  -6.896582  -5.496471  39.598806  20.609901 179.999838  82.675942 -179.999832 -10.377715   9.607287   3.094429  -4.610725  -3.531880   9.151631 -32.413311   8.321253 -12.084889  -0.000026 -42.221602  -0.000049 -18.284624  -9.302668  14.808714   8.715659   0.674694  -8.706426  31.329725   0.001395   0.000430 -29.190268  -1.210491   1.247992 -12.593851   0.000900   0.002108 -22.770055  -0.980102   1.229850  30.218404   0.000500  -0.000045  -4.625040   5.748567  -3.715648   1.417567  -0.000640  -0.000168
 -1.580435   0.864559   3.832670  -3.149541 -15.341540   4.801008   4.917178   4.503531  -1.982026  -3.172265   2.125871   0.571266  -1.325362   3.877106   1.050476  -2.250501  11.819579  -6.925930  -5.358583  39.675643  20.596028 179.999881  82.687167 -179.999884 -10.378514   9.606382   3.099380  -4.631935  -3.427882   9.039461 -32.263259   8.306116 -12.099868  -0.000024 -42.217157  -0.000043 -18.252677  -9.324972  14.815610   8.559001   0.687416  -8.508035  31.242620   0.001242   0.000322 -29.740559  -1.203722   1.159809 -11.224362  -0.000209   0.001097 -22.799981  -1.080055   1.424528  29.817788   0.001032   0.000048  -4.312986   5.700599  -3.817553   1.602225  -0.000607  -0.000288
 -1.581544   0.864756   3.827819  -3.195414 -15.355867   4.733328   4.961266   4.464901  -1.865254  -3.233224   2.074593   0.613931  -1.326787   3.892908   0.981957  -2.228653  11.817618  -6.962616  -5.225343  39.741770  20.579935 179.999917  82.701533 -179.999930 -10.379555   9.605223   3.105754  -4.650354  -3.324544   8.938843 -32.120837   8.296625 -12.113590  -0.000024 -42.210085  -0.000040 -18.227128  -9.327404  14.813004   8.382483   0.707144  -8.289513  31.128277   0.001148   0.000202 -30.142225  -1.175357   1.053751  -9.677893  -0.001132   0.000902 -22.789678  -1.184404   1.626622  29.310799   0.001592   0.000077  -4.064405   5.654430  -3.900388   1.777082  -0.000581  -0.000357
 -1.582651   0.865040   3.823078  -3.223766 -15.362125   4.667449   4.995037   4.429133  -1.751586  -3.300329   2.025773   0.657417  -1.328715   3.907570   0.918193  -2.215845  11.812832  -7.007938  -5.103739  39.799729  20.558226 179.999945  82.715938 -179.999961 -10.378640   9.606202   3.100330  -4.668352  -3.226255   8.857247 -31.989382   8.286253 -12.119990  -0.000022 -42.202690  -0.000037 -18.205219  -9.320499  14.814035   8.194493   0.717712  -8.067811  31.001132   0.001090   0.000101 -30.474041  -1.153108   0.949802  -8.617046  -0.001551   0.000670 -22.762247  -1.284007   1.828865  28.758667   0.002080   0.000072  -3.859655   5.612055  -3.971199   1.933408  -0.000553  -0.000387
 -1.583736   0.865336   3.818454  -3.243387 -15.360162   4.603329   5.023343   4.395443  -1.640536  -3.369202   1.979527   0.701498  -1.329916   3.921257   0.858313  -2.211652  11.807280  -7.059005  -4.993991  39.851531  20.532271 179.999963  82.729817 -179.999977 -10.375503   9.609597   3.081537  -4.686365  -3.134505   8.792856 -31.868855   8.273232 -12.119475  -0.000018 -42.196370  -0.000034 -18.183944  -9.314783  14.821373   8.005229   0.726673  -7.847166  30.868761   0.001044   0.000013 -30.771488  -1.130104   0.850195  -7.616965  -0.001865   0.000553 -22.727798  -1.379262   2.027742  28.193655   0.002458   0.000036  -3.685895   5.572677  -4.032695   2.074309  -0.000523  -0.000390
 -1.584789   0.865606   3.813960  -3.260156 -15.349911   4.540357   5.048194   4.363578  -1.531434  -3.437289   1.935611   0.746755  -1.330289   3.934045   0.802118  -2.213465  11.801726  -7.112498  -4.894537  39.898521  20.504131 179.999970  82.742982 -179.999983 -10.370680   9.614812   3.052633  -4.704281  -3.049634   8.742148 -31.758328   8.257633 -12.113807  -0.000013 -42.191499  -0.000029 -18.162087  -9.314549  14.833930   7.820061   0.734725  -7.629719  30.737467   0.000997  -0.000064 -31.049893  -1.106826   0.757778  -6.661920  -0.002117   0.000526 -22.690326  -1.469938   2.221574  27.633258   0.002721  -0.000027  -3.535425   5.535878  -4.086727   2.202075  -0.000491  -0.000374
 -1.585804   0.865834   3.809606  -3.277597 -15.331461   4.478206   5.070300   4.333405  -1.423792  -3.503287   1.893827   0.793526  -1.330057   3.945995   0.749531  -2.218815  11.796373  -7.165933  -4.803659  39.941582  20.475443 179.999970  82.755362 -179.999980 -10.364820   9.621138   3.017545  -4.721880  -2.971373   8.701813 -31.656727   8.240124 -12.104695  -0.000010 -42.188006  -0.000025 -18.139435  -9.320478  14.850005   7.642164   0.741987  -7.416895  30.611069   0.000945  -0.000128 -31.316768  -1.083729   0.673294  -5.759691  -0.002309   0.000565 -22.651636  -1.555771   2.409192  27.087246   0.002877  -0.000112  -3.403348   5.501403  -4.134601   2.318354  -0.000458  -0.000344
 -1.586828   0.866177   3.805522  -3.326022 -15.323323   4.428197   5.123970   4.296605  -1.351491  -3.586416   1.874538   0.843620  -1.303280   3.940776   0.686260  -2.221951  11.754854  -7.247201  -4.672762  40.002371  20.453057 -179.999882  82.805095 179.999877 -10.360762   9.625522   2.993209  -4.771946  -2.893372   8.682529 -31.603093   8.246314 -12.107675   0.000009 -42.173055  -0.000007 -18.120257  -9.315850  14.834520   7.558687   0.759629  -7.218679  30.393205   0.001008  -0.000265 -31.546194  -1.113177   0.545269  -4.855482  -0.002149   0.000316 -22.509958  -1.582894   2.588786  26.426908   0.003076  -0.000410  -3.155000   5.404576  -4.226770   2.289652  -0.000362  -0.000259
 -1.587806   0.866539   3.801616  -3.361441 -15.318108   4.382869   5.163258   4.262626  -1.280838  -3.673167   1.858174   0.889035  -1.277151   3.935567   0.624716  -2.223891  11.706740  -7.332553  -4.543735  40.052251  20.425035 -179.999761  82.855354 179.999769 -10.360482   9.625809   2.991611  -4.822168  -2.810715   8.674833 -31.555987   8.255817 -12.101014   0.000029 -42.157229   0.000010 -18.105624  -9.304694  14.844942   7.476461   0.774191  -7.028762  30.161979   0.001068  -0.000368 -31.747307  -1.146259   0.418211  -4.008061  -0.001959   0.000050 -22.367835  -1.600805   2.762534  25.767009   0.003196  -0.000641  -2.936115   5.315149  -4.311857   2.269676  -0.000287  -0.000196
 -1.588727   0.866904   3.797865  -3.390641 -15.313504   4.343534   5.196327   4.231288  -1.214786  -3.759991   1.843496   0.931599  -1.252927   3.930611   0.566351  -2.227982  11.656996  -7.416492  -4.422224  40.094384  20.394896 -179.999693  82.903739 179.999713 -10.360591   9.625677   2.992343  -4.870871  -2.727972   8.674798 -31.513820   8.266048 -12.087984   0.000047 -42.141702   0.000025 -18.091952  -9.293008  14.871893   7.394759   0.788022  -6.850879  29.932196   0.001103  -0.000441 -31.926293  -1.177525   0.296056  -3.219519  -0.001777  -0.000150 -22.233135  -1.613742   2.922732  25.148316   0.003199  -0.000784  -2.731661   5.231898  -4.392048   2.249024  -0.000227  -0.000147
